<svg width="163" height="37" viewBox="0 0 163 37" fill="none" xmlns="http://www.w3.org/2000/svg">
<rect width="163" height="37" rx="18.5" fill="#181C39"/>
<path d="M129.199 19.2953C129.867 19.2953 130.496 19.418 131.084 19.6633C131.679 19.9085 132.188 20.2458 132.611 20.675C133.04 21.0981 133.378 21.6101 133.623 22.2111C133.874 22.8058 134 23.4405 134 24.115C134 25.0163 133.789 25.8349 133.365 26.5707C132.948 27.3066 132.372 27.8829 131.636 28.2999C130.906 28.7107 130.094 28.9161 129.199 28.9161C127.831 28.9161 126.688 28.4593 125.768 27.5457C124.848 26.6321 124.388 25.4885 124.388 24.115C124.388 22.7415 124.848 21.5948 125.768 20.675C126.688 19.7552 127.831 19.2953 129.199 19.2953ZM129.199 21.8339C128.567 21.8339 128.04 22.0516 127.617 22.4869C127.2 22.9162 126.991 23.4589 126.991 24.115C126.991 24.7527 127.2 25.2892 127.617 25.7246C128.04 26.1599 128.567 26.3776 129.199 26.3776C129.818 26.3776 130.339 26.1599 130.762 25.7246C131.185 25.2892 131.397 24.7527 131.397 24.115C131.397 23.4589 131.185 22.9162 130.762 22.4869C130.345 22.0516 129.824 21.8339 129.199 21.8339Z" fill="#00A0FF"/>
<path d="M120.423 15.4783C120.742 15.1594 121.123 15 121.565 15C122.006 15 122.386 15.1594 122.705 15.4783C123.024 15.791 123.183 16.165 123.183 16.6004C123.183 17.0419 123.024 17.4221 122.705 17.7409C122.386 18.0598 122.006 18.2192 121.565 18.2192C121.123 18.2192 120.742 18.0598 120.423 17.7409C120.105 17.4221 119.945 17.0419 119.945 16.6004C119.945 16.165 120.105 15.791 120.423 15.4783ZM120.239 19.4793H122.898V28.7322H120.239V19.4793Z" fill="#00A0FF"/>
<path d="M116.607 28.9161C116.129 28.9161 115.721 28.7537 115.383 28.4287C115.052 28.0976 114.887 27.6959 114.887 27.2238C114.887 26.7578 115.052 26.3623 115.383 26.0372C115.721 25.7122 116.129 25.5498 116.607 25.5498C117.091 25.5498 117.499 25.7122 117.83 26.0372C118.167 26.3561 118.336 26.7516 118.336 27.2238C118.336 27.6959 118.167 28.0976 117.83 28.4287C117.499 28.7537 117.091 28.9161 116.607 28.9161Z" fill="#00A0FF"/>
<path d="M113.571 23.7011C113.571 24.0751 113.547 24.4216 113.498 24.7404H106.848C106.97 25.3658 107.238 25.8441 107.648 26.1752C108.059 26.5002 108.583 26.6627 109.221 26.6627C109.638 26.6627 110.036 26.5738 110.417 26.396C110.803 26.2182 111.076 25.9913 111.235 25.7154L113.305 26.9846C112.968 27.5978 112.434 28.073 111.704 28.4103C110.975 28.7475 110.128 28.9161 109.166 28.9161C107.804 28.9161 106.652 28.4501 105.707 27.5181C104.769 26.5799 104.3 25.4272 104.3 24.0598C104.3 22.7169 104.763 21.5886 105.689 20.675C106.621 19.7552 107.761 19.2953 109.11 19.2953C110.362 19.2953 111.416 19.7215 112.274 20.5738C113.139 21.4261 113.571 22.4685 113.571 23.7011ZM106.885 23.048H110.913C110.858 22.5882 110.643 22.2049 110.27 21.8983C109.895 21.5917 109.463 21.4385 108.973 21.4385C108.421 21.4385 107.967 21.5794 107.611 21.8615C107.256 22.1436 107.014 22.5391 106.885 23.048Z" fill="#00A0FF"/>
<path d="M99.0479 19.2953C100.164 19.2953 101.071 19.6326 101.771 20.3071C102.476 20.9816 102.828 21.8738 102.828 22.9837V28.7322H100.152V23.609C100.152 23.0634 100.008 22.631 99.7195 22.3122C99.4312 21.9933 99.0479 21.8339 98.5698 21.8339C98.0981 21.8339 97.6989 21.9903 97.3743 22.303C97.0556 22.6096 96.8962 23.045 96.8962 23.609V28.7322H94.238V23.609C94.238 23.0634 94.0938 22.631 93.8055 22.3122C93.5171 21.9933 93.1281 21.8339 92.6376 21.8339C92.1717 21.8339 91.782 21.9872 91.4697 22.2938C91.1567 22.6004 91.0002 23.0388 91.0002 23.609V28.7322H88.342V19.4793H91.0002V20.5922C91.595 19.7276 92.4753 19.2953 93.6403 19.2953C94.8603 19.2953 95.7341 19.746 96.2615 20.6474C96.5375 20.2427 96.9266 19.9177 97.4294 19.6725C97.9322 19.421 98.472 19.2953 99.0479 19.2953Z" fill="#00A0FF"/>
<path d="M86.8614 23.7011C86.8614 24.0751 86.8368 24.4216 86.7878 24.7404H80.1379C80.2605 25.3658 80.5272 25.8441 80.9381 26.1752C81.3488 26.5002 81.8732 26.6627 82.5109 26.6627C82.9278 26.6627 83.3264 26.5738 83.7066 26.396C84.0929 26.2182 84.3657 25.9913 84.5251 25.7154L86.5946 26.9846C86.2574 27.5978 85.7239 28.073 84.9942 28.4103C84.2645 28.7475 83.4184 28.9161 82.4557 28.9161C81.0944 28.9161 79.9416 28.4501 78.9974 27.5181C78.0591 26.5799 77.5901 25.4272 77.5901 24.0598C77.5901 22.7169 78.053 21.5886 78.9789 20.675C79.9109 19.7552 81.0515 19.2953 82.4005 19.2953C83.6514 19.2953 84.706 19.7215 85.5645 20.5738C86.4291 21.4261 86.8614 22.4685 86.8614 23.7011ZM80.1747 23.048H84.2032C84.148 22.5882 83.9334 22.2049 83.5594 21.8983C83.1854 21.5917 82.7531 21.4385 82.2625 21.4385C81.7107 21.4385 81.2569 21.5794 80.9013 21.8615C80.5456 22.1436 80.3034 22.5391 80.1747 23.048Z" fill="#00A0FF"/>
<path d="M76.7807 26.2672L76.9187 28.6219C76.563 28.7936 76.1092 28.8794 75.5574 28.8794C74.4537 28.8794 73.5615 28.5482 72.8809 27.8861C72.2064 27.2176 71.8691 26.2948 71.8691 25.1175V22.0087H70.1492V19.4793H71.8691V17.0511H74.5272V19.4793H76.7991V22.0087H74.5272V24.9795C74.5272 25.4026 74.6652 25.746 74.9411 26.0097C75.2171 26.2672 75.5544 26.396 75.9529 26.396C76.2595 26.396 76.5355 26.3531 76.7807 26.2672Z" fill="#00A0FF"/>
<path d="M66.0285 28.9161C64.3484 28.9161 62.9657 28.5298 61.8804 27.7572L62.6714 25.9085C63.5421 26.5585 64.5845 26.8835 65.7986 26.8835C66.2094 26.8835 66.5374 26.8129 66.7827 26.6719C67.0341 26.5309 67.1598 26.35 67.1598 26.1293C67.1598 25.9392 67.0648 25.7828 66.8747 25.6602C66.6907 25.5314 66.4517 25.4302 66.1573 25.3567C65.863 25.2831 65.538 25.2095 65.1823 25.1359C64.8267 25.0562 64.471 24.955 64.1154 24.8324C63.7598 24.7036 63.4348 24.5473 63.1404 24.3633C62.8461 24.1732 62.6039 23.9096 62.4138 23.5723C62.2299 23.2289 62.1348 22.8272 62.1287 22.3674C62.1164 21.4967 62.4598 20.767 63.1588 20.1783C63.8579 19.5897 64.75 19.2953 65.8354 19.2953C67.3009 19.2953 68.4751 19.6479 69.3581 20.3531L68.6039 22.2754C68.2359 21.9995 67.7853 21.7695 67.2519 21.5856C66.7245 21.4016 66.2155 21.3096 65.725 21.3096C65.3877 21.3096 65.1149 21.3801 64.9064 21.5212C64.6979 21.6623 64.5937 21.837 64.5937 22.0454C64.5937 22.2049 64.6673 22.346 64.8144 22.4685C64.9616 22.585 65.1517 22.6801 65.3847 22.7537C65.6238 22.8272 65.8936 22.9101 66.1941 23.0021C66.5007 23.0878 66.8104 23.1737 67.123 23.2596C67.4358 23.3454 67.7423 23.465 68.0428 23.6182C68.3494 23.7716 68.6223 23.9463 68.8614 24.1426C69.1006 24.3326 69.2937 24.584 69.4408 24.8968C69.5942 25.2095 69.6738 25.5651 69.68 25.9637C69.68 26.8221 69.3367 27.5304 68.6498 28.0884C67.9693 28.6402 67.0954 28.9161 66.0285 28.9161Z" fill="#00A0FF"/>
<path d="M59.112 19.4792H61.9724L56.831 31.8043H53.9888L55.6996 27.978L52.1401 19.4792H55.0098L57.0608 24.8875L59.112 19.4792Z" fill="#00A0FF"/>
<path d="M48.1482 28.9161C46.4681 28.9161 45.0853 28.5298 44 27.7572L44.791 25.9085C45.6617 26.5585 46.7041 26.8835 47.9182 26.8835C48.3291 26.8835 48.6571 26.8129 48.9024 26.6719C49.1538 26.5309 49.2795 26.35 49.2795 26.1293C49.2795 25.9392 49.1844 25.7828 48.9944 25.6602C48.8104 25.5314 48.5713 25.4302 48.2769 25.3567C47.9826 25.2831 47.6576 25.2095 47.302 25.1359C46.9463 25.0562 46.5907 24.955 46.2351 24.8324C45.8794 24.7036 45.5544 24.5473 45.2601 24.3633C44.9658 24.1732 44.7236 23.9096 44.5334 23.5723C44.3495 23.2289 44.2544 22.8272 44.2484 22.3674C44.236 21.4967 44.5795 20.767 45.2784 20.1783C45.9775 19.5897 46.8697 19.2953 47.955 19.2953C49.4205 19.2953 50.5947 19.6479 51.4777 20.3531L50.7235 22.2754C50.3556 21.9995 49.9049 21.7695 49.3715 21.5856C48.8441 21.4016 48.3352 21.3096 47.8446 21.3096C47.5074 21.3096 47.2345 21.3801 47.0261 21.5212C46.8176 21.6623 46.7133 21.837 46.7133 22.0454C46.7133 22.2049 46.7869 22.346 46.9341 22.4685C47.0812 22.585 47.2713 22.6801 47.5043 22.7537C47.7435 22.8272 48.0133 22.9101 48.3137 23.0021C48.6203 23.0878 48.93 23.1737 49.2427 23.2596C49.5554 23.3454 49.862 23.465 50.1625 23.6182C50.469 23.7716 50.7419 23.9463 50.981 24.1426C51.2202 24.3326 51.4133 24.584 51.5605 24.8968C51.7138 25.2095 51.7936 25.5651 51.7996 25.9637C51.7996 26.8221 51.4563 27.5304 50.7696 28.0884C50.0889 28.6402 49.2151 28.9161 48.1482 28.9161Z" fill="#00A0FF"/>
<mask id="mask0_2001_4947" style="mask-type:luminance" maskUnits="userSpaceOnUse" x="2" y="2" width="33" height="33">
<path d="M34.5 2.5H2.5V34.5H34.5V2.5Z" fill="white"/>
</mask>
<g mask="url(#mask0_2001_4947)">
<path d="M18.5 34.5C27.3366 34.5 34.5 27.3366 34.5 18.5C34.5 9.66344 27.3366 2.5 18.5 2.5C9.66344 2.5 2.5 9.66344 2.5 18.5C2.5 27.3366 9.66344 34.5 18.5 34.5Z" fill="#00A0FF"/>
<path d="M17.8572 23.6223C18.5 23.663 19.1445 23.5744 19.7525 23.3618C19.9407 23.2727 20.0964 23.1273 20.1981 22.9456C20.2998 22.7639 20.3424 22.5551 20.3199 22.3481C20.3027 22.1291 20.2274 21.9186 20.1017 21.7385C19.976 21.5583 19.8045 21.4149 19.6049 21.3231C18.9053 20.9275 18.1724 20.594 17.4146 20.3263C16.6485 20.0432 15.9563 19.76 15.3378 19.4486C14.7488 19.1683 14.2086 18.7955 13.7376 18.3442C13.3015 17.912 12.9579 17.3956 12.7275 16.8265C12.4734 16.1481 12.352 15.4271 12.3701 14.7029C12.342 13.9696 12.4902 13.2404 12.8022 12.5762C13.1142 11.9121 13.5809 11.3325 14.1632 10.8859C15.3661 9.94964 17.0117 9.48338 19.0999 9.48714C20.109 9.48286 21.1161 9.57579 22.1074 9.76464C22.8795 9.90044 23.6388 10.1013 24.3772 10.3649L23.5317 14.1479C22.9242 13.9433 22.3068 13.7695 21.6818 13.6269C20.9474 13.4678 20.1974 13.3918 19.446 13.4003C17.9329 13.4003 17.1763 13.8251 17.1763 14.6746C17.1733 14.8535 17.2081 15.031 17.2784 15.1956C17.365 15.3766 17.5006 15.5296 17.6699 15.6373C17.9242 15.8092 18.1918 15.9607 18.4701 16.0903C18.8049 16.2546 19.2362 16.4358 19.7582 16.6566C20.6678 16.9693 21.5535 17.3479 22.4082 17.7893C23.0245 18.1067 23.5828 18.526 24.0594 19.0295C24.4512 19.4537 24.7421 19.9609 24.9106 20.5132C25.0811 21.129 25.1633 21.7658 25.1546 22.4047C25.1984 23.1605 25.0446 23.9146 24.7083 24.5929C24.372 25.2711 23.8648 25.8501 23.2366 26.2726C21.9618 27.1447 20.1592 27.5808 17.8289 27.5808C16.5466 27.6072 15.2659 27.476 14.0156 27.19C13.2998 27.0213 12.5964 26.8037 11.9104 26.5388L12.7275 22.5746C13.5541 22.9013 14.4063 23.1589 15.2754 23.3448C16.1238 23.5279 16.9892 23.6209 17.8572 23.6223Z" fill="white"/>
</g>
<path d="M46.1005 12V5.09091H48.8263C49.3504 5.09091 49.7968 5.19099 50.1657 5.39116C50.5345 5.58907 50.8156 5.86458 51.0091 6.21768C51.2047 6.56854 51.3026 6.97337 51.3026 7.43217C51.3026 7.89098 51.2036 8.29581 51.0057 8.64666C50.8078 8.99751 50.521 9.27077 50.1454 9.46644C49.7721 9.66211 49.32 9.75994 48.7892 9.75994H47.0518V8.58931H48.5531C48.8342 8.58931 49.0659 8.54096 49.248 8.44425C49.4325 8.34529 49.5697 8.20922 49.6596 8.03604C49.7518 7.86062 49.7979 7.65933 49.7979 7.43217C49.7979 7.20277 49.7518 7.0026 49.6596 6.83168C49.5697 6.6585 49.4325 6.52468 49.248 6.43022C49.0636 6.33351 48.8297 6.28516 48.5463 6.28516H47.5613V12H46.1005ZM54.4822 12.1012C53.9581 12.1012 53.5049 11.9899 53.1226 11.7672C52.7425 11.5423 52.449 11.2297 52.2421 10.8294C52.0352 10.4268 51.9317 9.96011 51.9317 9.42933C51.9317 8.89406 52.0352 8.42625 52.2421 8.02592C52.449 7.62334 52.7425 7.31072 53.1226 7.08807C53.5049 6.86316 53.9581 6.75071 54.4822 6.75071C55.0062 6.75071 55.4582 6.86316 55.8383 7.08807C56.2207 7.31072 56.5153 7.62334 56.7222 8.02592C56.9291 8.42625 57.0326 8.89406 57.0326 9.42933C57.0326 9.96011 56.9291 10.4268 56.7222 10.8294C56.5153 11.2297 56.2207 11.5423 55.8383 11.7672C55.4582 11.9899 55.0062 12.1012 54.4822 12.1012ZM54.4889 10.9879C54.7273 10.9879 54.9263 10.9205 55.086 10.7855C55.2457 10.6483 55.366 10.4616 55.447 10.2255C55.5302 9.98935 55.5718 9.72058 55.5718 9.41921C55.5718 9.11784 55.5302 8.84908 55.447 8.61293C55.366 8.37678 55.2457 8.1901 55.086 8.05291C54.9263 7.91572 54.7273 7.84712 54.4889 7.84712C54.2483 7.84712 54.0458 7.91572 53.8817 8.05291C53.7197 8.1901 53.5972 8.37678 53.5139 8.61293C53.433 8.84908 53.3925 9.11784 53.3925 9.41921C53.3925 9.72058 53.433 9.98935 53.5139 10.2255C53.5972 10.4616 53.7197 10.6483 53.8817 10.7855C54.0458 10.9205 54.2483 10.9879 54.4889 10.9879ZM58.8594 12L57.4492 6.81818H58.9032L59.7061 10.2997H59.7534L60.59 6.81818H62.017L62.8672 10.2795H62.911L63.7005 6.81818H65.1511L63.7443 12H62.2228L61.3322 8.74112H61.2681L60.3775 12H58.8594ZM68.1494 12.1012C67.6163 12.1012 67.1575 11.9933 66.7729 11.7773C66.3906 11.5592 66.096 11.2511 65.8891 10.853C65.6822 10.4527 65.5787 9.97923 65.5787 9.43271C65.5787 8.89968 65.6822 8.43188 65.8891 8.0293C66.096 7.62672 66.3872 7.31297 66.7628 7.08807C67.1407 6.86316 67.5837 6.75071 68.092 6.75071C68.4339 6.75071 68.7521 6.80581 69.0467 6.91602C69.3436 7.02397 69.6023 7.18703 69.8227 7.40518C70.0453 7.62334 70.2185 7.89773 70.3422 8.22834C70.4659 8.5567 70.5277 8.94129 70.5277 9.3821V9.77681H66.1522V8.88619H69.1749C69.1749 8.67927 69.13 8.49598 69.04 8.33629C68.95 8.17661 68.8252 8.05179 68.6655 7.96183C68.5081 7.86961 68.3248 7.82351 68.1156 7.82351C67.8975 7.82351 67.7041 7.87411 67.5354 7.97532C67.3689 8.07428 67.2385 8.2081 67.144 8.37678C67.0496 8.54321 67.0012 8.72875 66.999 8.93342V9.78018C66.999 10.0366 67.0462 10.2581 67.1407 10.4448C67.2374 10.6315 67.3734 10.7754 67.5489 10.8766C67.7243 10.9778 67.9323 11.0284 68.173 11.0284C68.3327 11.0284 68.4789 11.0059 68.6116 10.9609C68.7442 10.916 68.8578 10.8485 68.9523 10.7585C69.0467 10.6686 69.1187 10.5584 69.1682 10.4279L70.4974 10.5156C70.4299 10.835 70.2916 11.1139 70.0824 11.3523C69.8755 11.5884 69.6079 11.7728 69.2795 11.9055C68.9534 12.036 68.5767 12.1012 68.1494 12.1012ZM71.4656 12V6.81818H72.8589V7.7223H72.9129C73.0073 7.40069 73.1659 7.15779 73.3885 6.99361C73.6112 6.82718 73.8676 6.74396 74.1577 6.74396C74.2297 6.74396 74.3073 6.74846 74.3905 6.75746C74.4737 6.76645 74.5468 6.77882 74.6098 6.79457V8.06978C74.5423 8.04954 74.449 8.03155 74.3298 8.0158C74.2106 8.00006 74.1015 7.99219 74.0025 7.99219C73.7911 7.99219 73.6022 8.03829 73.4358 8.1305C73.2716 8.22047 73.1411 8.34641 73.0444 8.50835C72.95 8.67028 72.9027 8.85695 72.9027 9.06836V12H71.4656ZM77.4731 12.1012C76.9401 12.1012 76.4813 11.9933 76.0967 11.7773C75.7143 11.5592 75.4197 11.2511 75.2128 10.853C75.0059 10.4527 74.9024 9.97923 74.9024 9.43271C74.9024 8.89968 75.0059 8.43188 75.2128 8.0293C75.4197 7.62672 75.711 7.31297 76.0866 7.08807C76.4644 6.86316 76.9075 6.75071 77.4157 6.75071C77.7576 6.75071 78.0758 6.80581 78.3705 6.91602C78.6673 7.02397 78.926 7.18703 79.1464 7.40518C79.3691 7.62334 79.5422 7.89773 79.6659 8.22834C79.7896 8.5567 79.8515 8.94129 79.8515 9.3821V9.77681H75.4759V8.88619H78.4987C78.4987 8.67927 78.4537 8.49598 78.3637 8.33629C78.2738 8.17661 78.1489 8.05179 77.9893 7.96183C77.8318 7.86961 77.6485 7.82351 77.4394 7.82351C77.2212 7.82351 77.0278 7.87411 76.8591 7.97532C76.6927 8.07428 76.5622 8.2081 76.4678 8.37678C76.3733 8.54321 76.325 8.72875 76.3227 8.93342V9.78018C76.3227 10.0366 76.3699 10.2581 76.4644 10.4448C76.5611 10.6315 76.6972 10.7754 76.8726 10.8766C77.048 10.9778 77.2561 11.0284 77.4967 11.0284C77.6564 11.0284 77.8026 11.0059 77.9353 10.9609C78.068 10.916 78.1816 10.8485 78.276 10.7585C78.3705 10.6686 78.4424 10.5584 78.4919 10.4279L79.8211 10.5156C79.7536 10.835 79.6153 11.1139 79.4062 11.3523C79.1992 11.5884 78.9316 11.7728 78.6032 11.9055C78.2771 12.036 77.9004 12.1012 77.4731 12.1012ZM82.6988 12.0843C82.3052 12.0843 81.9487 11.9831 81.6294 11.7807C81.3122 11.5761 81.0603 11.2758 80.8737 10.88C80.6892 10.4819 80.597 9.99384 80.597 9.41584C80.597 8.82209 80.6926 8.32842 80.8838 7.93484C81.075 7.539 81.3291 7.24325 81.6462 7.04759C81.9656 6.84967 82.3153 6.75071 82.6954 6.75071C82.9855 6.75071 83.2273 6.80019 83.4207 6.89915C83.6164 6.99586 83.7738 7.11731 83.893 7.26349C84.0145 7.40743 84.1067 7.54912 84.1697 7.68857H84.2135V5.09091H85.6473V12H84.2304V11.1701H84.1697C84.1022 11.314 84.0066 11.4569 83.8829 11.5985C83.7615 11.738 83.6029 11.8538 83.4072 11.946C83.2138 12.0382 82.9777 12.0843 82.6988 12.0843ZM83.1542 10.9407C83.3859 10.9407 83.5815 10.8777 83.7412 10.7518C83.9031 10.6236 84.0268 10.4448 84.1123 10.2154C84.2 9.98597 84.2439 9.71721 84.2439 9.40909C84.2439 9.10097 84.2011 8.83333 84.1157 8.60618C84.0302 8.37902 83.9065 8.2036 83.7446 8.0799C83.5827 7.9562 83.3859 7.89435 83.1542 7.89435C82.9181 7.89435 82.719 7.95845 82.5571 8.08665C82.3952 8.21484 82.2726 8.39252 82.1894 8.61967C82.1061 8.84683 82.0645 9.10997 82.0645 9.40909C82.0645 9.71046 82.1061 9.97698 82.1894 10.2086C82.2748 10.438 82.3974 10.618 82.5571 10.7484C82.719 10.8766 82.9181 10.9407 83.1542 10.9407ZM89.0546 12V5.09091H90.4917V7.68857H90.5356C90.5986 7.54912 90.6897 7.40743 90.8089 7.26349C90.9303 7.11731 91.0877 6.99586 91.2812 6.89915C91.4768 6.80019 91.7197 6.75071 92.0099 6.75071C92.3877 6.75071 92.7363 6.84967 93.0557 7.04759C93.375 7.24325 93.6303 7.539 93.8215 7.93484C94.0126 8.32842 94.1082 8.82209 94.1082 9.41584C94.1082 9.99384 94.0149 10.4819 93.8282 10.88C93.6438 11.2758 93.3919 11.5761 93.0725 11.7807C92.7554 11.9831 92.4001 12.0843 92.0065 12.0843C91.7276 12.0843 91.4903 12.0382 91.2947 11.946C91.1012 11.8538 90.9427 11.738 90.819 11.5985C90.6953 11.4569 90.6008 11.314 90.5356 11.1701H90.4715V12H89.0546ZM90.4614 9.40909C90.4614 9.71721 90.5041 9.98597 90.5896 10.2154C90.675 10.4448 90.7987 10.6236 90.9607 10.7518C91.1226 10.8777 91.3194 10.9407 91.551 10.9407C91.7849 10.9407 91.9829 10.8766 92.1448 10.7484C92.3067 10.618 92.4293 10.438 92.5125 10.2086C92.598 9.97698 92.6407 9.71046 92.6407 9.40909C92.6407 9.10997 92.5991 8.84683 92.5159 8.61967C92.4327 8.39252 92.3101 8.21484 92.1482 8.08665C91.9862 7.95845 91.7872 7.89435 91.551 7.89435C91.3171 7.89435 91.1192 7.9562 90.9573 8.0799C90.7976 8.2036 90.675 8.37902 90.5896 8.60618C90.5041 8.83333 90.4614 9.10097 90.4614 9.40909ZM95.7874 13.9432C95.6052 13.9432 95.4343 13.9286 95.2746 13.8993C95.1172 13.8723 94.9868 13.8375 94.8833 13.7947L95.2072 12.7219C95.3758 12.7737 95.5277 12.8018 95.6626 12.8063C95.7998 12.8108 95.9179 12.7793 96.0168 12.7118C96.118 12.6444 96.2001 12.5297 96.2631 12.3677L96.3474 12.1484L94.4886 6.81818H96L97.0728 10.6236H97.1267L98.2097 6.81818H99.7311L97.7171 12.56C97.6204 12.8389 97.4888 13.0818 97.3224 13.2887C97.1582 13.4979 96.9502 13.6587 96.6983 13.7711C96.4464 13.8858 96.1428 13.9432 95.7874 13.9432Z" fill="white"/>
<path d="M154.76 18.4167L149.343 12.9995C149.189 12.8449 148.982 12.76 148.763 12.76C148.543 12.76 148.337 12.845 148.182 12.9995L147.69 13.4915C147.536 13.6459 147.451 13.8521 147.451 14.072C147.451 14.2917 147.536 14.5049 147.69 14.6593L150.851 17.8264H140.81C140.358 17.8264 140 18.1808 140 18.6336V19.3291C140 19.7819 140.358 20.172 140.81 20.172H150.886L147.69 23.3569C147.536 23.5115 147.451 23.7121 147.451 23.932C147.451 24.1516 147.536 24.3552 147.69 24.5097L148.182 25C148.337 25.1547 148.543 25.2389 148.763 25.2389C148.983 25.2389 149.189 25.1536 149.343 24.9989L154.76 19.5819C154.915 19.4268 155.001 19.2197 155 18.9996C155 18.7787 154.915 18.5715 154.76 18.4167Z" fill="white"/>
</svg>
